# xmcd
#
# Track frame offsets:
#	150
#	17310
#	36950
#	56077
#	77185
#
# Disc length: 1281 seconds
# Revision: 0
# Processed by: cddbd v1.5.2PL0 Copyright (c) Steve Scherf et al.
# Submitted via: dBpowerAMP V12.0
#
DISCID=3404ff05
DTITLE=Brownstone - 5 Miles To Empty [CD Single)
DYEAR=1997
DGENRE=R&B
TTITLE0=5 Miles To Empty (Radio Edit)
TTITLE1=5 Miles To Empty (Cutfather and Joe Remix Up)
TTITLE2=5 Miles To Empty (Cutfather and Joe Remix Smooth)
TTITLE3=5 Miles To Empty (Do Me Remix)
TTITLE4=5 Miles To Empty (Dark Child Remix)
EXTD=
EXTT0=
EXTT1=
EXTT2=
EXTT3=
EXTT4=
PLAYORDER=
